<?xml version="1.0" encoding="UTF-8" standalone="no"?>
<!-- Created with Inkscape (http://www.inkscape.org/) -->

<svg
   xmlns:dc="http://purl.org/dc/elements/1.1/"
   xmlns:cc="http://creativecommons.org/ns#"
   xmlns:rdf="http://www.w3.org/1999/02/22-rdf-syntax-ns#"
   xmlns:svg="http://www.w3.org/2000/svg"
   xmlns="http://www.w3.org/2000/svg"
   xmlns:xlink="http://www.w3.org/1999/xlink"
   xmlns:sodipodi="http://sodipodi.sourceforge.net/DTD/sodipodi-0.dtd"
   xmlns:inkscape="http://www.inkscape.org/namespaces/inkscape"
   width="188.47842"
   height="56.20425"
   id="svg2"
   version="1.1"
   inkscape:version="0.48.1 r9760"
   sodipodi:docname="logo.svg"
   inkscape:export-filename="/home/jj/projects/thyself/site/logo.png"
   inkscape:export-xdpi="88.129997"
   inkscape:export-ydpi="88.129997">
  <sodipodi:namedview
     id="base"
     pagecolor="#ffffff"
     bordercolor="#666666"
     borderopacity="1.0"
     inkscape:pageopacity="0.0"
     inkscape:pageshadow="2"
     inkscape:zoom="2.8284271"
     inkscape:cx="124.12187"
     inkscape:cy="-39.175096"
     inkscape:document-units="px"
     inkscape:current-layer="layer1"
     showgrid="false"
     inkscape:window-width="1050"
     inkscape:window-height="1680"
     inkscape:window-x="0"
     inkscape:window-y="0"
     inkscape:window-maximized="0"
     inkscape:snap-global="false"
     inkscape:snap-page="true"
     fit-margin-top="0"
     fit-margin-left="0"
     fit-margin-right="0"
     fit-margin-bottom="0" />
  <defs
     id="defs4">
    <linearGradient
       id="linearGradient3827"
       inkscape:collect="always">
      <stop
         id="stop3829"
         offset="0"
         style="stop-color:#b71818;stop-opacity:1" />
      <stop
         id="stop3831"
         offset="1"
         style="stop-color:#e50000;stop-opacity:0;" />
    </linearGradient>
    <linearGradient
       id="linearGradient3821"
       inkscape:collect="always">
      <stop
         id="stop3823"
         offset="0"
         style="stop-color:#0f0c0c;stop-opacity:1" />
      <stop
         id="stop3825"
         offset="1"
         style="stop-color:#fb0000;stop-opacity:1" />
    </linearGradient>
    <linearGradient
       inkscape:collect="always"
       id="linearGradient3873">
      <stop
         style="stop-color:#616161;stop-opacity:1;"
         offset="0"
         id="stop3875" />
      <stop
         style="stop-color:#616161;stop-opacity:0;"
         offset="1"
         id="stop3877" />
    </linearGradient>
    <linearGradient
       inkscape:collect="always"
       id="linearGradient3865">
      <stop
         style="stop-color:#e50000;stop-opacity:1;"
         offset="0"
         id="stop3867" />
      <stop
         style="stop-color:#e50000;stop-opacity:0;"
         offset="1"
         id="stop3869" />
    </linearGradient>
    <linearGradient
       id="linearGradient5999"
       inkscape:collect="always">
      <stop
         id="stop6001"
         offset="0"
         style="stop-color:#da0000;stop-opacity:1" />
      <stop
         id="stop6003"
         offset="1"
         style="stop-color:#ffffff;stop-opacity:1" />
    </linearGradient>
    <linearGradient
       id="linearGradient5971"
       inkscape:collect="always">
      <stop
         id="stop5973"
         offset="0"
         style="stop-color:#5c5c5c;stop-opacity:1" />
      <stop
         id="stop5975"
         offset="1"
         style="stop-color:#000000;stop-opacity:0;" />
    </linearGradient>
    <linearGradient
       id="linearGradient4296">
      <stop
         style="stop-color:#909090;stop-opacity:1;"
         offset="0"
         id="stop4298" />
      <stop
         id="stop4300"
         offset="0.11802575"
         style="stop-color:#d2d2d2;stop-opacity:1" />
      <stop
         style="stop-color:#e5e5e5;stop-opacity:1"
         offset="0.25751075"
         id="stop4302" />
      <stop
         id="stop4304"
         offset="0.44849786"
         style="stop-color:#aaaaaa;stop-opacity:1" />
      <stop
         style="stop-color:#aaaaaa;stop-opacity:1"
         offset="0.50214595"
         id="stop4316" />
      <stop
         style="stop-color:#8f8f8f;stop-opacity:1"
         offset="0.56866956"
         id="stop4306" />
      <stop
         id="stop4308"
         offset="0.74034333"
         style="stop-color:#efefef;stop-opacity:1" />
      <stop
         style="stop-color:#eaeaea;stop-opacity:1"
         offset="0.86480689"
         id="stop4310" />
      <stop
         id="stop4312"
         offset="0.91416311"
         style="stop-color:#cdcdcd;stop-opacity:1" />
      <stop
         style="stop-color:#f9f9f9;stop-opacity:1"
         offset="1"
         id="stop4314" />
    </linearGradient>
    <linearGradient
       id="linearGradient4262">
      <stop
         id="stop4264"
         offset="0"
         style="stop-color:#909090;stop-opacity:1;" />
      <stop
         style="stop-color:#d2d2d2;stop-opacity:1"
         offset="0.11802575"
         id="stop4270" />
      <stop
         id="stop4272"
         offset="0.26824036"
         style="stop-color:#e5e5e5;stop-opacity:1" />
      <stop
         style="stop-color:#313131;stop-opacity:1"
         offset="0.44849786"
         id="stop4274" />
      <stop
         id="stop4286"
         offset="0.61587983"
         style="stop-color:#8f8f8f;stop-opacity:1" />
      <stop
         style="stop-color:#fefefe;stop-opacity:1"
         offset="0.74034333"
         id="stop4288" />
      <stop
         id="stop4290"
         offset="0.86480689"
         style="stop-color:#dfdfdf;stop-opacity:1" />
      <stop
         style="stop-color:#707070;stop-opacity:1"
         offset="0.91416311"
         id="stop4292" />
      <stop
         id="stop4266"
         offset="1"
         style="stop-color:#b7b7b7;stop-opacity:1" />
    </linearGradient>
    <linearGradient
       id="linearGradient3955"
       inkscape:collect="always">
      <stop
         id="stop3957"
         offset="0"
         style="stop-color:#000000;stop-opacity:1;" />
      <stop
         id="stop3959"
         offset="1"
         style="stop-color:#000000;stop-opacity:0;" />
    </linearGradient>
    <inkscape:perspective
       id="perspective3849"
       inkscape:persp3d-origin="309.74033 : 402.61446 : 1"
       inkscape:vp_z="232.03976 : 791.72084 : 1"
       inkscape:vp_y="0 : 1000 : 0"
       inkscape:vp_x="95.344273 : 783.9211 : 1"
       sodipodi:type="inkscape:persp3d" />
    <linearGradient
       id="linearGradient3811"
       inkscape:collect="always">
      <stop
         id="stop3813"
         offset="0"
         style="stop-color:#000000;stop-opacity:1;" />
      <stop
         id="stop3815"
         offset="1"
         style="stop-color:#000000;stop-opacity:0;" />
    </linearGradient>
    <linearGradient
       id="linearGradient3789"
       inkscape:collect="always">
      <stop
         id="stop3791"
         offset="0"
         style="stop-color:#000000;stop-opacity:1;" />
      <stop
         id="stop3793"
         offset="1"
         style="stop-color:#000000;stop-opacity:0;" />
    </linearGradient>
    <linearGradient
       gradientTransform="matrix(1.0733465,0,0,1.1119533,-25.63327,-23.065841)"
       gradientUnits="userSpaceOnUse"
       y2="190.08044"
       x2="535.59784"
       y1="190.08044"
       x1="65.981056"
       id="linearGradient3795"
       xlink:href="#linearGradient3789"
       inkscape:collect="always" />
    <linearGradient
       gradientUnits="userSpaceOnUse"
       y2="-713.62646"
       x2="240.5546"
       y1="-496.9064"
       x1="240.5546"
       id="linearGradient3817"
       xlink:href="#linearGradient3811"
       inkscape:collect="always" />
    <linearGradient
       gradientUnits="userSpaceOnUse"
       y2="238.24402"
       x2="-918.62659"
       y1="236.28917"
       x1="-132.03802"
       id="linearGradient3961"
       xlink:href="#linearGradient3955"
       inkscape:collect="always" />
    <linearGradient
       gradientUnits="userSpaceOnUse"
       y2="88.021805"
       x2="13.788109"
       y1="26.251072"
       x1="102.03201"
       id="linearGradient5977"
       xlink:href="#linearGradient5971"
       inkscape:collect="always" />
    <linearGradient
       gradientUnits="userSpaceOnUse"
       y2="-10.516521"
       x2="141.20895"
       y1="78.142471"
       x1="121.428"
       id="linearGradient6005"
       xlink:href="#linearGradient5999"
       inkscape:collect="always" />
    <linearGradient
       inkscape:collect="always"
       xlink:href="#linearGradient3865"
       id="linearGradient3871"
       x1="179.28371"
       y1="111.23418"
       x2="231.95209"
       y2="-109.76582"
       gradientUnits="userSpaceOnUse"
       gradientTransform="matrix(1,0,0,1.109027,0,-4.0102786)" />
    <linearGradient
       inkscape:collect="always"
       xlink:href="#linearGradient3873"
       id="linearGradient3879"
       x1="126.17186"
       y1="34.937157"
       x2="91.355927"
       y2="241.93716"
       gradientUnits="userSpaceOnUse"
       gradientTransform="matrix(1,0,0,1.109027,0,-4.0102786)" />
    <linearGradient
       inkscape:collect="always"
       xlink:href="#linearGradient3827"
       id="linearGradient3048"
       gradientUnits="userSpaceOnUse"
       gradientTransform="matrix(0.78933842,0,0,0.87539762,4.670758,4.5831755)"
       x1="179.28371"
       y1="111.23418"
       x2="231.95209"
       y2="-109.76582" />
    <linearGradient
       inkscape:collect="always"
       xlink:href="#linearGradient3821"
       id="linearGradient3051"
       gradientUnits="userSpaceOnUse"
       gradientTransform="matrix(0.78933842,0,0,0.87539762,4.670758,4.5831755)"
       x1="126.17186"
       y1="34.937157"
       x2="91.355927"
       y2="241.93716" />
  </defs>
  <metadata
     id="metadata7">
    <rdf:RDF>
      <cc:Work
         rdf:about="">
        <dc:format>image/svg+xml</dc:format>
        <dc:type
           rdf:resource="http://purl.org/dc/dcmitype/StillImage" />
        <dc:title></dc:title>
      </cc:Work>
    </rdf:RDF>
  </metadata>
  <g
     id="layer1"
     inkscape:groupmode="layer"
     inkscape:label="Layer 1"
     transform="translate(-22.171855,-36.782419)">
    <rect
       style="fill:#ffffff;fill-opacity:1;fill-rule:nonzero;stroke:none"
       id="rect5797"
       width="27.024694"
       height="158.83902"
       x="212.60976"
       y="348.47195"
       ry="4.1719074" />
    <path
       id="path5806"
       style="font-size:60.92449570000000136px;font-style:normal;font-variant:normal;font-weight:normal;font-stretch:normal;line-height:125%;letter-spacing:0px;word-spacing:0px;fill:url(#linearGradient3051);fill-opacity:1;stroke:none;font-family:Gruppo;-inkscape-font-specification:Gruppo;opacity:0.74766355"
       d="m 66.005058,37.093392 c -0.270846,3.9e-5 -0.517623,0.113055 -0.691736,0.282636 -0.154774,0.145381 -0.267257,0.323076 -0.364071,0.56527 -0.07735,0.242272 -0.126289,0.533047 -0.145628,0.847907 -0.01969,0.290722 -0.03635,0.557246 -0.03635,0.847905 l 0,38.612149 c 0,0.314899 0.01713,0.654138 0.03635,0.969036 0.01934,0.31491 0.06827,0.565297 0.145628,0.80753 0.0967,0.242219 0.209297,0.476467 0.364071,0.646023 0.174113,0.145264 0.42089,0.201882 0.691736,0.201882 0.232142,0 0.410683,-0.0566 0.546106,-0.201882 0.154762,-0.169556 0.250306,-0.403804 0.327664,-0.646023 0.07735,-0.242233 0.126289,-0.49262 0.145629,-0.80753 0.03868,-0.314898 0.07282,-0.654137 0.07282,-0.969036 l 0,-16.433221 c 0.348215,-1.429173 0.9839,-2.608385 1.893169,-3.55313 0.909246,-0.944667 1.933829,-1.703925 3.094604,-2.261082 1.180091,-0.58133 2.417327,-0.952884 3.713525,-1.170916 1.296187,-0.242169 2.518638,-0.36335 3.640711,-0.363389 1.857206,3.9e-5 3.353706,0.226186 4.514482,0.686399 1.160738,0.460266 2.05569,1.154897 2.694122,2.099577 0.65774,0.920506 1.114878,2.067443 1.347062,3.472376 0.2292,1.387645 0.396658,4.206957 0.400565,6.542034 0.0032,2.335078 0.199545,4.597026 0.582429,6.418812 0.406265,1.840973 1.039646,3.302912 1.929578,4.441411 0.889908,1.114262 2.063457,1.938109 3.49508,2.422588 1.431599,0.460241 3.189645,0.6864 5.279032,0.6864 0.657748,0 1.374178,-0.0323 2.148018,-0.08075 0.79318,-0.04846 1.59032,-0.137306 2.40287,-0.282635 0.81252,-0.169556 1.60967,-0.395716 2.40287,-0.686401 0.79317,-0.290672 1.52663,-0.686451 2.18443,-1.170917 0.65774,-0.484467 1.22746,-1.074079 1.71113,-1.776565 0.48362,-0.702473 0.80656,-1.550546 1.0194,-2.543717 -4e-5,3.052138 -0.1615,5.612548 -0.5097,7.671529 -0.3289,2.083206 -0.89862,3.730902 -1.71113,4.966308 -0.79322,1.259603 -1.86897,2.172291 -3.20383,2.705221 -1.33489,0.557115 -2.99515,0.807516 -4.98778,0.807532 -1.315547,0 -2.437907,-0.08889 -3.385855,-0.282638 -0.947972,-0.169582 -1.759894,-0.395743 -2.475681,-0.686401 -0.696465,-0.266488 -1.317367,-0.565324 -1.820357,-0.928657 -0.483675,-0.339139 -0.906673,-0.670314 -1.274253,-1.009413 -0.232152,-0.218126 -0.476642,-0.298789 -0.728141,-0.201882 -0.232152,0.0969 -0.376475,0.218031 -0.473287,0.363388 -0.03868,0.07262 -0.106955,0.161443 -0.145633,0.282638 -0.03868,0.121061 -0.05344,0.258422 -0.07286,0.403763 0,0.145325 0.03418,0.298788 0.07286,0.444137 0.03868,0.145317 0.08516,0.266488 0.182037,0.363388 0.367564,0.363356 0.807651,0.759106 1.310657,1.17092 0.50299,0.411774 1.13866,0.775257 1.893165,1.090163 0.773828,0.339124 1.700614,0.589526 2.803352,0.807533 1.12206,0.217984 2.488918,0.322989 4.113996,0.323013 2.28282,-2.4e-5 4.25582,-0.298859 5.86155,-0.928665 1.60571,-0.629805 2.90661,-1.704063 3.93197,-3.230114 1.02531,-1.501859 1.75651,-3.480735 2.22083,-5.975716 0.48363,-2.495008 0.72811,-5.636943 0.72814,-9.367341 l 0,-17.846398 c 0,-0.314885 -0.0171,-0.613723 -0.0364,-0.928659 -0.0193,-0.314872 -0.0489,-0.605634 -0.14562,-0.847906 -0.0774,-0.242207 -0.20933,-0.419915 -0.36408,-0.56527 -0.15478,-0.169594 -0.36516,-0.242233 -0.65532,-0.242259 -0.23218,2.6e-5 -0.42777,0.07275 -0.58252,0.242259 -0.13544,0.145355 -0.2503,0.323063 -0.32766,0.56527 -0.0774,0.242272 -0.14336,0.533034 -0.18204,0.847906 -0.0196,0.314936 -0.0365,0.613774 -0.0364,0.928659 l 0,16.513975 c -0.3289,1.429197 -0.9134,2.576108 -1.78394,3.472375 -0.85126,0.896255 -1.84398,1.631249 -2.98539,2.139953 -1.12209,0.508692 -2.31042,0.855995 -3.56789,1.049788 -1.25751,0.193769 -2.42879,0.282649 -3.531489,0.282636 -1.837887,1.3e-5 -3.370798,-0.218058 -4.550891,-0.605647 -1.160833,-0.387562 -2.072826,-1.033754 -2.73059,-1.978447 -0.657771,-0.94472 -1.09557,-2.220861 -1.347061,-3.795388 -0.229295,-1.554849 -0.361233,-3.479805 -0.365014,-5.942318 -0.0032,-2.462499 -0.235033,-5.743936 -0.617981,-7.422292 -0.386941,-1.719819 -1.003273,-3.076778 -1.893173,-4.118401 -0.870585,-1.041582 -2.027084,-1.784665 -3.458668,-2.220705 -1.431633,-0.460214 -3.189671,-0.686374 -5.279032,-0.6864 -0.657774,0 -1.408308,0.0078 -2.220833,0.08076 -0.793197,0.07275 -1.624468,0.209997 -2.475683,0.403766 -0.831889,0.193806 -1.643808,0.468444 -2.475683,0.807528 -0.831888,0.314924 -1.597207,0.718792 -2.293648,1.251671 -0.677126,0.508718 -1.261597,1.130633 -1.783948,1.857318 -0.50299,0.726712 -0.87941,1.574811 -1.092214,2.543717 l 0,-19.63521 c 0,-0.314871 -0.03413,-0.597559 -0.07282,-0.888282 -0.01934,-0.314872 -0.06827,-0.605647 -0.145628,-0.847906 -0.07735,-0.242194 -0.172901,-0.41989 -0.327664,-0.565271 -0.135423,-0.145264 -0.313963,-0.24222 -0.546107,-0.242259 z m -5.905327,4.64443 c -3.5e-5,0.290724 -0.05802,0.52085 -0.174113,0.690367 -0.116154,0.14538 -0.27088,0.242271 -0.464298,0.290684 -0.174161,0.04846 -0.386965,0.07274 -0.638424,0.07274 -0.251529,4e-5 -0.522375,4e-5 -0.812525,0 l -15.583233,0 0,35.390252 c -3.4e-5,0.363337 -0.0093,0.702473 -0.02901,1.017371 -0.01946,0.31491 -0.07747,0.605582 -0.174113,0.872041 -0.07747,0.242232 -0.193489,0.436014 -0.348228,0.581356 -0.154797,0.14533 -0.377271,0.218008 -0.667444,0.218008 -0.503013,0 -0.841569,-0.266446 -1.015659,-0.799364 -0.154798,-0.557131 -0.232179,-1.186939 -0.232155,-1.889412 l 0,-35.390252 -15.641275,0 c -0.251506,4e-5 -0.512669,4e-5 -0.783515,0 -0.251495,4e-5 -0.48365,-0.02416 -0.696454,-0.07274 -0.193452,-0.04832 -0.357908,-0.145304 -0.493319,-0.290684 -0.116037,-0.169517 -0.174113,-0.399643 -0.174113,-0.690367 0,-0.36331 0.06769,-0.629757 0.203134,-0.799363 0.135411,-0.19373 0.299855,-0.326979 0.493319,-0.399683 0.212804,-0.07274 0.44496,-0.108919 0.696454,-0.109048 0.270846,-0.02416 0.52234,-0.0363 0.754494,-0.0363 l 33.691127,0 c 0.290151,3.8e-5 0.560996,0.01163 0.812537,0.0363 0.25146,5.2e-5 0.464252,0.03644 0.638411,0.109048 0.193418,0.07275 0.348193,0.205953 0.464299,0.399683 0.116037,0.169606 0.174079,0.436053 0.174114,0.799363"
       inkscape:connector-curvature="0"
       sodipodi:nodetypes="ccccsscccscccsccccccccccccsccsccccccsccccccccccccccsccssccccccccccccccsccccccccccccscccccccccccccccscccccccscccsccccc" />
    <path
       id="path5816"
       style="font-size:60.9244957px;font-style:normal;font-variant:normal;font-weight:normal;font-stretch:normal;line-height:125%;letter-spacing:0px;word-spacing:0px;fill:url(#linearGradient3048);fill-opacity:1;stroke:none;font-family:Gruppo;-inkscape-font-specification:Gruppo"
       d="m 198.3961,52.710995 11.17234,0 c 0.29016,1.4e-5 0.50297,0.0969 0.63841,0.290672 0.15475,0.169595 0.23214,0.363376 0.23214,0.581357 0,0.218047 -0.0773,0.423934 -0.23214,0.617689 -0.13544,0.169581 -0.34825,0.254378 -0.63841,0.25434 l -11.17234,0 0,24.635097 c 0,0.77515 -0.11604,1.271722 -0.34824,1.489729 -0.21281,0.193795 -0.48365,0.290685 -0.81252,0.290685 -0.27085,0 -0.53203,-0.0969 -0.78351,-0.290685 -0.25151,-0.218007 -0.37726,-0.714579 -0.37726,-1.489729 l 0,-24.635097 -2.55367,0 c -0.27085,3.8e-5 -0.47398,-0.08476 -0.6094,-0.25434 -0.13543,-0.193755 -0.20314,-0.399642 -0.20314,-0.617689 0,-0.217981 0.0677,-0.411762 0.20314,-0.581357 0.13542,-0.193768 0.33855,-0.290658 0.6094,-0.290672 l 2.58269,0 0,-1.489743 c 0,-1.96205 0.15476,-3.609242 0.46431,-4.941549 0.32887,-1.356468 0.7835,-2.43441 1.3639,-3.233813 0.59971,-0.82355 1.31551,-1.417026 2.14741,-1.780414 0.83186,-0.363311 1.77014,-0.544986 2.81485,-0.545037 0.58036,5.1e-5 1.13173,0.0243 1.65408,0.07274 0.52233,0.0243 1.04468,0.0969 1.56703,0.218007 0.54168,0.0969 1.10271,0.242271 1.68311,0.436028 0.59971,0.169593 1.2478,0.399719 1.94427,0.690354 0.17409,0.07274 0.31919,0.157499 0.43528,0.254338 0.13541,0.07274 0.2418,0.181727 0.3192,0.327031 0.25149,0.484491 0.19345,0.884173 -0.17411,1.199045 -0.0968,0.121194 -0.25151,0.205927 -0.46429,0.254352 -0.19348,0.0243 -0.41596,-0.0243 -0.66744,-0.145343 -1.04471,-0.460213 -2.06037,-0.775111 -3.047,-0.944718 -0.96732,-0.169517 -1.91527,-0.254314 -2.84386,-0.254339 -0.75451,2.5e-5 -1.44129,0.109048 -2.06036,0.327017 -0.59974,0.193807 -1.11241,0.593514 -1.53801,1.199058 -0.42563,0.605608 -0.75452,1.465543 -0.98665,2.579778 -0.21283,1.090074 -0.31921,2.519247 -0.31921,4.287529 l 0,1.489729 m -10.88832,25.616068 c 0,0.702487 -0.0676,1.308056 -0.20313,1.816748 -0.13543,0.484478 -0.44496,0.726698 -0.92861,0.726698 -0.2902,0 -0.51268,-0.0606 -0.66744,-0.181675 -0.15476,-0.145329 -0.27085,-0.327017 -0.34823,-0.545023 -0.0773,-0.242233 -0.12575,-0.508692 -0.1451,-0.799376 -0.0193,-0.314885 -0.029,-0.629797 -0.029,-0.944694 l 0,-39.001266 c 0,-0.363311 0.009,-0.702435 0.029,-1.017371 0.0193,-0.314872 0.0677,-0.581331 0.1451,-0.799364 0.0968,-0.242194 0.22248,-0.435988 0.37725,-0.581369 0.17411,-0.14529 0.40626,-0.217968 0.69646,-0.218007 0.23215,3.9e-5 0.41593,0.07275 0.55135,0.218007 0.15476,0.145381 0.27084,0.339175 0.34824,0.581369 0.0773,0.242259 0.12574,0.520824 0.1451,0.835696 0.0193,0.290724 0.029,0.593515 0.029,0.908387 l 0,39.00124 m -22.84625,0.763032 c 1.83785,1.3e-5 3.44358,-0.145342 4.81717,-0.436015 1.37355,-0.290671 2.55365,-0.641927 3.54032,-1.053715 0.98662,-0.411802 1.78948,-0.835696 2.40859,-1.271736 0.63839,-0.436001 1.1317,-0.799351 1.47997,-1.090023 0.15474,-0.121194 0.31916,-0.133248 0.49332,-0.03644 0.17409,0.0969 0.31918,0.25434 0.43529,0.472347 0.11604,0.218007 0.17408,0.460253 0.1741,0.726698 -2e-5,0.242247 -0.0968,0.448134 -0.29018,0.61769 -0.17414,0.218007 -0.55139,0.557143 -1.13175,1.01737 -0.58041,0.460254 -1.40262,0.9326 -2.46662,1.417078 -1.0447,0.460241 -2.35056,0.872042 -3.91757,1.235391 -1.56704,0.363337 -3.42426,0.545012 -5.57166,0.545012 -2.24414,0 -4.14973,-0.35123 -5.71675,-1.053704 -1.56703,-0.702472 -2.84387,-1.683523 -3.83051,-2.94314 -0.98667,-1.259603 -1.70245,-2.773547 -2.14741,-4.541855 -0.44496,-1.768296 -0.66745,-3.706159 -0.66745,-5.813591 0,-2.809892 0.35791,-5.147437 1.07371,-7.01265 0.71581,-1.865173 1.69278,-3.354902 2.93094,-4.469203 1.25747,-1.138461 2.72777,-1.937825 4.41088,-2.398103 1.70245,-0.460214 3.53064,-0.690329 5.4846,-0.690367 4.02396,3.8e-5 7.03226,0.968971 9.02493,2.906795 2.01196,1.913664 3.01794,4.663011 3.01797,8.24804 -3e-5,0.314912 -0.0387,0.69038 -0.11603,1.126394 -0.0775,0.411801 -0.18381,0.811483 -0.31921,1.199033 -0.11604,0.363374 -0.25153,0.678273 -0.40627,0.944718 -0.15479,0.242246 -0.29989,0.363363 -0.43528,0.36335 l -7.95122,0 -14.39344,-0.36335 c 0.0387,2.252775 0.2805,4.166412 0.72546,5.740926 0.44495,1.550289 1.08338,2.822012 1.91525,3.81517 0.83188,0.968932 1.86689,1.683511 3.10505,2.143764 1.23813,0.436015 2.67941,0.654022 4.32384,0.654009 m 1.50898,-24.635085 c -1.79919,2.6e-5 -3.39523,0.193807 -4.78813,0.58137 -1.39293,0.387588 -2.58271,1.017396 -3.56934,1.889411 -0.96732,0.847841 -1.72182,1.949996 -2.26349,3.306478 -0.5417,1.35652 -0.85123,3.015805 -0.92861,4.977895 l 21.88036,0 0,-1.96209 c -2e-5,-1.211139 -0.18382,-2.349651 -0.55136,-3.415487 -0.34826,-1.06581 -0.92863,-1.998409 -1.74114,-2.797798 -0.81256,-0.799339 -1.87659,-1.429147 -3.1921,-1.889413 -1.31555,-0.460213 -2.93095,-0.69034 -4.84619,-0.690366 M 145.47174,73.27657 c -3e-5,-1.283842 -0.3676,-2.276987 -1.10273,-2.979474 -0.71583,-0.702472 -1.67346,-1.211151 -2.87289,-1.526074 -1.18013,-0.339111 -2.53436,-0.544999 -4.06266,-0.617689 -1.50902,-0.0969 -3.05669,-0.169556 -4.64305,-0.218008 -1.56704,-0.07275 -3.11473,-0.181661 -4.64305,-0.327017 -1.509,-0.169555 -2.86321,-0.49656 -4.06267,-0.981038 -1.18011,-0.508679 -2.13773,-1.223258 -2.87288,-2.143777 -0.71581,-0.94468 -1.07371,-2.228509 -1.07371,-3.851502 0,-1.671378 0.3579,-3.040006 1.07371,-4.105841 0.73515,-1.065797 1.69277,-1.913611 2.87288,-2.543446 1.1801,-0.629782 2.51497,-1.06581 4.00463,-1.308055 1.48964,-0.242207 3.00829,-0.363324 4.55599,-0.36335 2.47628,2.6e-5 4.82681,0.266486 7.05164,0.799377 2.24412,0.53293 4.28512,1.404972 6.12302,2.616098 0.19343,0.121194 0.31918,0.278604 0.37723,0.472359 0.0774,0.169594 0.12572,0.351269 0.1451,0.545037 -2e-5,0.314911 -0.0774,0.593476 -0.23215,0.835697 -0.15479,0.242258 -0.3289,0.363374 -0.52234,0.363349 -0.11615,2.5e-5 -0.19348,-0.0243 -0.23215,-0.07275 -1.64444,-1.04157 -3.521,-1.865161 -5.62971,-2.470769 -2.10872,-0.629795 -4.43024,-0.944679 -6.96455,-0.944718 -1.31555,3.9e-5 -2.59238,0.109048 -3.83053,0.327017 -1.23816,0.19382 -2.34087,0.532943 -3.30817,1.01737 -0.94795,0.460267 -1.71214,1.090075 -2.2925,1.889425 -0.58038,0.775176 -0.87058,1.756203 -0.87058,2.943128 0,1.211191 0.35789,2.14379 1.07371,2.797799 0.73514,0.654034 1.69278,1.138513 2.87289,1.453397 1.19944,0.290685 2.55367,0.47236 4.06266,0.545024 1.52833,0.07275 3.07601,0.145343 4.64305,0.218008 1.58637,0.07274 3.13405,0.205914 4.64305,0.399682 1.52831,0.169581 2.88253,0.520824 4.06267,1.053715 1.19943,0.508718 2.15705,1.259616 2.87288,2.252761 0.73513,0.968946 1.10271,2.277014 1.10272,3.924193 -1e-5,1.477624 -0.36759,2.725107 -1.10272,3.742491 -0.73517,1.017384 -1.71214,1.840961 -2.93091,2.470769 -1.21885,0.605583 -2.63109,1.053728 -4.23679,1.344388 -1.58639,0.266471 -3.23081,0.399681 -4.93324,0.399681 -1.0447,0 -2.17645,-0.03644 -3.39522,-0.108919 -1.19947,-0.04846 -2.39892,-0.181675 -3.59837,-0.399682 -1.19946,-0.242233 -2.36022,-0.593463 -3.48228,-1.053716 -1.12209,-0.484466 -2.09906,-1.138487 -2.93094,-1.96209 -0.27084,-0.242219 -0.40627,-0.557131 -0.40627,-0.944718 0,-0.314885 0.0677,-0.581344 0.20314,-0.799351 0.15476,-0.242233 0.33855,-0.36335 0.55137,-0.36335 0.13542,0 0.25149,0.04846 0.34823,0.145329 0.81252,0.702487 1.68309,1.271737 2.61171,1.70775 0.94794,0.436015 1.94427,0.775139 2.98896,1.017372 1.04467,0.242245 2.13772,0.411801 3.27916,0.508705 1.1414,0.07274 2.3215,0.108919 3.54031,0.108919 1.45094,1.3e-5 2.84386,-0.08476 4.17875,-0.254339 1.3542,-0.193795 2.54399,-0.508692 3.56935,-0.94472 1.04466,-0.460227 1.87654,-1.053703 2.49563,-1.780414 0.61905,-0.7509 0.92859,-1.695618 0.92862,-2.834105"
       inkscape:connector-curvature="0"
       sodipodi:nodetypes="cccscccscscscccscccsccccccccccccccccscscccscccsscccccccsccscccccccsccsscsssccccccccccccccccscscccccccccccccccsccccccccccccccccscccccccccccsccccscsccccscccc" />
    <g
       id="g5895"
       transform="translate(-100.10457,-11.904267)" />
  </g>
</svg>
