<?xml version="1.0" encoding="UTF-8" standalone="no"?>
<!-- Created with Inkscape (http://www.inkscape.org/) -->

<svg
   xmlns:dc="http://purl.org/dc/elements/1.1/"
   xmlns:cc="http://creativecommons.org/ns#"
   xmlns:rdf="http://www.w3.org/1999/02/22-rdf-syntax-ns#"
   xmlns:svg="http://www.w3.org/2000/svg"
   xmlns="http://www.w3.org/2000/svg"
   xmlns:xlink="http://www.w3.org/1999/xlink"
   xmlns:sodipodi="http://sodipodi.sourceforge.net/DTD/sodipodi-0.dtd"
   xmlns:inkscape="http://www.inkscape.org/namespaces/inkscape"
   width="188.47842"
   height="56.20425"
   id="svg2"
   version="1.1"
   inkscape:version="0.48.1 r9760"
   sodipodi:docname="logo.svg"
   inkscape:export-filename="/home/jj/projects/thyself/site/logo.png"
   inkscape:export-xdpi="88.129997"
   inkscape:export-ydpi="88.129997">
  <sodipodi:namedview
     id="base"
     pagecolor="#ffffff"
     bordercolor="#666666"
     borderopacity="1.0"
     inkscape:pageopacity="0.0"
     inkscape:pageshadow="2"
     inkscape:zoom="1"
     inkscape:cx="284.10032"
     inkscape:cy="-140.69932"
     inkscape:document-units="px"
     inkscape:current-layer="layer1"
     showgrid="false"
     inkscape:window-width="1050"
     inkscape:window-height="835"
     inkscape:window-x="0"
     inkscape:window-y="834"
     inkscape:window-maximized="0"
     inkscape:snap-global="false"
     inkscape:snap-page="true"
     fit-margin-top="0"
     fit-margin-left="0"
     fit-margin-right="0"
     fit-margin-bottom="0" />
  <defs
     id="defs4">
    <linearGradient
       inkscape:collect="always"
       id="linearGradient3873">
      <stop
         style="stop-color:#616161;stop-opacity:1;"
         offset="0"
         id="stop3875" />
      <stop
         style="stop-color:#616161;stop-opacity:0;"
         offset="1"
         id="stop3877" />
    </linearGradient>
    <linearGradient
       inkscape:collect="always"
       id="linearGradient3865">
      <stop
         style="stop-color:#e50000;stop-opacity:1;"
         offset="0"
         id="stop3867" />
      <stop
         style="stop-color:#e50000;stop-opacity:0;"
         offset="1"
         id="stop3869" />
    </linearGradient>
    <linearGradient
       id="linearGradient5999"
       inkscape:collect="always">
      <stop
         id="stop6001"
         offset="0"
         style="stop-color:#da0000;stop-opacity:1" />
      <stop
         id="stop6003"
         offset="1"
         style="stop-color:#ffffff;stop-opacity:1" />
    </linearGradient>
    <linearGradient
       id="linearGradient5971"
       inkscape:collect="always">
      <stop
         id="stop5973"
         offset="0"
         style="stop-color:#5c5c5c;stop-opacity:1" />
      <stop
         id="stop5975"
         offset="1"
         style="stop-color:#000000;stop-opacity:0;" />
    </linearGradient>
    <linearGradient
       id="linearGradient4296">
      <stop
         style="stop-color:#909090;stop-opacity:1;"
         offset="0"
         id="stop4298" />
      <stop
         id="stop4300"
         offset="0.11802575"
         style="stop-color:#d2d2d2;stop-opacity:1" />
      <stop
         style="stop-color:#e5e5e5;stop-opacity:1"
         offset="0.25751075"
         id="stop4302" />
      <stop
         id="stop4304"
         offset="0.44849786"
         style="stop-color:#aaaaaa;stop-opacity:1" />
      <stop
         style="stop-color:#aaaaaa;stop-opacity:1"
         offset="0.50214595"
         id="stop4316" />
      <stop
         style="stop-color:#8f8f8f;stop-opacity:1"
         offset="0.56866956"
         id="stop4306" />
      <stop
         id="stop4308"
         offset="0.74034333"
         style="stop-color:#efefef;stop-opacity:1" />
      <stop
         style="stop-color:#eaeaea;stop-opacity:1"
         offset="0.86480689"
         id="stop4310" />
      <stop
         id="stop4312"
         offset="0.91416311"
         style="stop-color:#cdcdcd;stop-opacity:1" />
      <stop
         style="stop-color:#f9f9f9;stop-opacity:1"
         offset="1"
         id="stop4314" />
    </linearGradient>
    <linearGradient
       id="linearGradient4262">
      <stop
         id="stop4264"
         offset="0"
         style="stop-color:#909090;stop-opacity:1;" />
      <stop
         style="stop-color:#d2d2d2;stop-opacity:1"
         offset="0.11802575"
         id="stop4270" />
      <stop
         id="stop4272"
         offset="0.26824036"
         style="stop-color:#e5e5e5;stop-opacity:1" />
      <stop
         style="stop-color:#313131;stop-opacity:1"
         offset="0.44849786"
         id="stop4274" />
      <stop
         id="stop4286"
         offset="0.61587983"
         style="stop-color:#8f8f8f;stop-opacity:1" />
      <stop
         style="stop-color:#fefefe;stop-opacity:1"
         offset="0.74034333"
         id="stop4288" />
      <stop
         id="stop4290"
         offset="0.86480689"
         style="stop-color:#dfdfdf;stop-opacity:1" />
      <stop
         style="stop-color:#707070;stop-opacity:1"
         offset="0.91416311"
         id="stop4292" />
      <stop
         id="stop4266"
         offset="1"
         style="stop-color:#b7b7b7;stop-opacity:1" />
    </linearGradient>
    <linearGradient
       id="linearGradient3955"
       inkscape:collect="always">
      <stop
         id="stop3957"
         offset="0"
         style="stop-color:#000000;stop-opacity:1;" />
      <stop
         id="stop3959"
         offset="1"
         style="stop-color:#000000;stop-opacity:0;" />
    </linearGradient>
    <inkscape:perspective
       id="perspective3849"
       inkscape:persp3d-origin="309.74033 : 402.61446 : 1"
       inkscape:vp_z="232.03976 : 791.72084 : 1"
       inkscape:vp_y="0 : 1000 : 0"
       inkscape:vp_x="95.344273 : 783.9211 : 1"
       sodipodi:type="inkscape:persp3d" />
    <linearGradient
       id="linearGradient3811"
       inkscape:collect="always">
      <stop
         id="stop3813"
         offset="0"
         style="stop-color:#000000;stop-opacity:1;" />
      <stop
         id="stop3815"
         offset="1"
         style="stop-color:#000000;stop-opacity:0;" />
    </linearGradient>
    <linearGradient
       id="linearGradient3789"
       inkscape:collect="always">
      <stop
         id="stop3791"
         offset="0"
         style="stop-color:#000000;stop-opacity:1;" />
      <stop
         id="stop3793"
         offset="1"
         style="stop-color:#000000;stop-opacity:0;" />
    </linearGradient>
    <linearGradient
       gradientTransform="matrix(1.0733465,0,0,1.1119533,-25.63327,-23.065841)"
       gradientUnits="userSpaceOnUse"
       y2="190.08044"
       x2="535.59784"
       y1="190.08044"
       x1="65.981056"
       id="linearGradient3795"
       xlink:href="#linearGradient3789"
       inkscape:collect="always" />
    <linearGradient
       gradientUnits="userSpaceOnUse"
       y2="-713.62646"
       x2="240.5546"
       y1="-496.9064"
       x1="240.5546"
       id="linearGradient3817"
       xlink:href="#linearGradient3811"
       inkscape:collect="always" />
    <linearGradient
       gradientUnits="userSpaceOnUse"
       y2="238.24402"
       x2="-918.62659"
       y1="236.28917"
       x1="-132.03802"
       id="linearGradient3961"
       xlink:href="#linearGradient3955"
       inkscape:collect="always" />
    <linearGradient
       gradientUnits="userSpaceOnUse"
       y2="88.021805"
       x2="13.788109"
       y1="26.251072"
       x1="102.03201"
       id="linearGradient5977"
       xlink:href="#linearGradient5971"
       inkscape:collect="always" />
    <linearGradient
       gradientUnits="userSpaceOnUse"
       y2="-10.516521"
       x2="141.20895"
       y1="78.142471"
       x1="121.428"
       id="linearGradient6005"
       xlink:href="#linearGradient5999"
       inkscape:collect="always" />
    <linearGradient
       inkscape:collect="always"
       xlink:href="#linearGradient3865"
       id="linearGradient3871"
       x1="179.28371"
       y1="111.23418"
       x2="231.95209"
       y2="-109.76582"
       gradientUnits="userSpaceOnUse"
       gradientTransform="matrix(1,0,0,1.109027,0,-4.0102786)" />
    <linearGradient
       inkscape:collect="always"
       xlink:href="#linearGradient3873"
       id="linearGradient3879"
       x1="126.17186"
       y1="34.937157"
       x2="91.355927"
       y2="241.93716"
       gradientUnits="userSpaceOnUse"
       gradientTransform="matrix(1,0,0,1.109027,0,-4.0102786)" />
    <linearGradient
       inkscape:collect="always"
       xlink:href="#linearGradient3873"
       id="linearGradient3885"
       gradientUnits="userSpaceOnUse"
       gradientTransform="matrix(1,0,0,1.109027,0,-4.0102786)"
       x1="126.17186"
       y1="34.937157"
       x2="91.355927"
       y2="241.93716" />
    <linearGradient
       inkscape:collect="always"
       xlink:href="#linearGradient3865"
       id="linearGradient3887"
       gradientUnits="userSpaceOnUse"
       gradientTransform="matrix(1,0,0,1.109027,0,-4.0102786)"
       x1="179.28371"
       y1="111.23418"
       x2="231.95209"
       y2="-109.76582" />
  </defs>
  <metadata
     id="metadata7">
    <rdf:RDF>
      <cc:Work
         rdf:about="">
        <dc:format>image/svg+xml</dc:format>
        <dc:type
           rdf:resource="http://purl.org/dc/dcmitype/StillImage" />
        <dc:title></dc:title>
      </cc:Work>
    </rdf:RDF>
  </metadata>
  <g
     id="layer1"
     inkscape:groupmode="layer"
     inkscape:label="Layer 1"
     transform="translate(-22.171855,-36.782419)">
    <rect
       style="fill:#ffffff;fill-opacity:1;fill-rule:nonzero;stroke:none"
       id="rect5797"
       width="27.024694"
       height="158.83902"
       x="212.60976"
       y="348.47195"
       ry="4.1719074" />
    <g
       id="g3881"
       transform="matrix(0.78933842,0,0,0.78933842,4.670758,7.7486425)">
      <path
         sodipodi:nodetypes="ccccsscccscccsccccccccccccsccsccccccsccccccccccccccsccssccccccccccccccsccccccccccccscccccccccccccccscccccccscccsccccc"
         inkscape:connector-curvature="0"
         d="m 77.703426,37.176386 c -0.34313,4.9e-5 -0.655767,0.143227 -0.876348,0.358066 -0.196081,0.184181 -0.338584,0.4093 -0.461236,0.716132 -0.098,0.30693 -0.159994,0.675309 -0.184494,1.074199 -0.02494,0.368312 -0.04605,0.705966 -0.04605,1.074198 l 0,48.917103 c 0,0.39894 0.0217,0.828716 0.04605,1.227656 0.0245,0.398954 0.08649,0.716165 0.184494,1.023046 0.122504,0.306864 0.265155,0.603629 0.461236,0.818436 0.220581,0.184033 0.533218,0.255762 0.876348,0.255762 0.294098,0 0.520288,-0.0717 0.691853,-0.255762 0.196066,-0.214807 0.317109,-0.511572 0.415112,-0.818436 0.098,-0.306881 0.159994,-0.624092 0.184495,-1.023046 0.049,-0.39894 0.09225,-0.828716 0.09225,-1.227656 l 0,-20.81898 c 0.441148,-1.810596 1.246487,-3.304521 2.398425,-4.501403 1.151909,-1.196783 2.449937,-2.158675 3.920504,-2.864528 1.495038,-0.736478 3.062472,-1.207193 4.704604,-1.483415 1.642118,-0.306799 3.190822,-0.460322 4.612358,-0.460371 2.352863,4.9e-5 4.248755,0.286551 5.719323,0.869588 1.47052,0.583103 2.60432,1.46312 3.41314,2.65992 0.83328,1.166174 1.41242,2.61921 1.70657,4.399096 0.29037,1.757985 0.50252,5.329725 0.50747,8.287997 0.004,2.958272 0.2528,5.823897 0.73787,8.131888 0.51469,2.332299 1.31711,4.184405 2.44455,5.626752 1.12741,1.41164 2.61416,2.455358 4.42786,3.069137 1.81367,0.583071 4.04091,0.869589 6.68792,0.869589 0.83329,0 1.74092,-0.04092 2.72129,-0.102307 1.00487,-0.06139 2.01475,-0.173951 3.04416,-0.358066 1.02936,-0.214808 2.03926,-0.501326 3.04415,-0.86959 1.00486,-0.368248 1.93406,-0.869654 2.76742,-1.483416 0.83328,-0.613763 1.55505,-1.360733 2.1678,-2.250701 0.6127,-0.889952 1.02182,-1.964362 1.29146,-3.222594 -4e-5,3.866704 -0.20459,7.110446 -0.64573,9.718935 -0.41667,2.63918 -1.13844,4.726619 -2.1678,6.291735 -1.00491,1.59577 -2.36777,2.75204 -4.05888,3.4272 -1.69115,0.7058 -3.7945,1.02303 -6.31893,1.02305 -1.66665,0 -3.08855,-0.11262 -4.28949,-0.35807 -1.20097,-0.21484 -2.22958,-0.50136 -3.1364,-0.86959 -0.88234,-0.33761 -1.66895,-0.7162 -2.30618,-1.1765 -0.61276,-0.42965 -1.14865,-0.84921 -1.61433,-1.27881 -0.29411,-0.27634 -0.60385,-0.37853 -0.92247,-0.25576 -0.29411,0.12276 -0.47695,0.27622 -0.5996,0.46037 -0.049,0.092 -0.1355,0.20453 -0.1845,0.35807 -0.049,0.15337 -0.0677,0.32739 -0.0923,0.51152 0,0.18411 0.0433,0.37853 0.0923,0.56267 0.049,0.1841 0.10789,0.33761 0.23062,0.46037 0.46566,0.46033 1.0232,0.9617 1.66045,1.48342 0.63723,0.52167 1.44255,0.98216 2.39842,1.38111 0.98035,0.42963 2.15448,0.74686 3.55152,1.02305 1.42152,0.27616 3.15317,0.40919 5.21196,0.40922 2.89206,-3e-5 5.39162,-0.37862 7.4259,-1.17651 2.03425,-0.79789 3.68233,-2.15885 4.98134,-4.09218 1.29896,-1.90268 2.2253,-4.409686 2.81354,-7.570537 0.6127,-3.160885 0.92243,-7.141351 0.92247,-11.867332 l 0,-22.609311 c 0,-0.398923 -0.0217,-0.777515 -0.0461,-1.176503 -0.0245,-0.398906 -0.062,-0.767268 -0.18449,-1.074198 -0.098,-0.306848 -0.26519,-0.531984 -0.46124,-0.716132 -0.19609,-0.214856 -0.46262,-0.306881 -0.83022,-0.306914 -0.29414,3.3e-5 -0.54193,0.09216 -0.73798,0.306914 -0.17159,0.184148 -0.31711,0.409284 -0.41511,0.716132 -0.0981,0.30693 -0.18162,0.675292 -0.23062,1.074198 -0.0249,0.398988 -0.0462,0.77758 -0.0461,1.176503 l 0,20.921286 c -0.41669,1.810627 -1.15718,3.26363 -2.26005,4.399096 -1.07845,1.13545 -2.33611,2.066602 -3.78214,2.711071 -1.42156,0.644454 -2.92704,1.084446 -4.52011,1.32996 -1.59311,0.245482 -3.07699,0.358083 -4.47398,0.358066 -2.32839,1.7e-5 -4.27041,-0.276254 -5.76545,-0.767284 -1.47064,-0.490996 -2.62603,-1.309646 -3.45934,-2.506462 -0.83332,-1.19685 -1.38796,-2.813573 -1.70657,-4.808315 -0.29049,-1.969813 -0.45764,-4.408509 -0.46243,-7.528226 -0.004,-3.1197 -0.29776,-7.276899 -0.78291,-9.403181 -0.49021,-2.178811 -1.27103,-3.89792 -2.39843,-5.217535 -1.10293,-1.319564 -2.56808,-2.260963 -4.38173,-2.813375 -1.813713,-0.583038 -4.040943,-0.869556 -6.68792,-0.869589 -0.833323,0 -1.784163,0.0099 -2.813538,0.102307 -1.004888,0.09216 -2.058011,0.266042 -3.136402,0.511524 -1.053906,0.24553 -2.082513,0.593464 -3.136403,1.023045 -1.053905,0.398972 -2.023475,0.910625 -2.905785,1.585721 -0.85784,0.644487 -1.598296,1.43238 -2.260055,2.353006 -0.637229,0.920659 -1.11411,1.995102 -1.383708,3.222594 l 0,-24.875528 c 0,-0.398906 -0.04324,-0.757038 -0.09225,-1.125351 -0.0245,-0.398906 -0.08649,-0.767284 -0.184494,-1.074198 -0.098,-0.306831 -0.219046,-0.531951 -0.415112,-0.716132 -0.171565,-0.184033 -0.397755,-0.306865 -0.691854,-0.306914 z m -7.481362,5.883952 c -4.4e-5,0.368314 -0.0735,0.659857 -0.220581,0.874615 -0.147153,0.18418 -0.343174,0.306929 -0.588212,0.368263 -0.220641,0.06139 -0.490239,0.09216 -0.808809,0.09216 -0.318658,5e-5 -0.661788,5e-5 -1.029374,0 l -19.742144,0 0,44.835334 c -4.4e-5,0.460305 -0.01181,0.889951 -0.03675,1.28889 -0.02465,0.398955 -0.09815,0.767203 -0.220581,1.104775 -0.09815,0.30688 -0.245128,0.552379 -0.441165,0.736511 -0.19611,0.184116 -0.477958,0.27619 -0.845574,0.27619 -0.637258,0 -1.06617,-0.337556 -1.286722,-1.012701 -0.19611,-0.70582 -0.294143,-1.503714 -0.294113,-2.393665 l 0,-44.835334 -19.815676,0 c -0.318629,5e-5 -0.649493,5e-5 -0.992623,0 -0.318615,5e-5 -0.612728,-0.03061 -0.882326,-0.09216 -0.245082,-0.06122 -0.453428,-0.184083 -0.624978,-0.368263 -0.147005,-0.214758 -0.220581,-0.506301 -0.220581,-0.874615 0,-0.460271 0.08575,-0.797828 0.257347,-1.0127 0.17155,-0.245433 0.379881,-0.414244 0.624978,-0.506351 0.269598,-0.09216 0.563712,-0.137988 0.882326,-0.138151 0.34313,-0.03061 0.661744,-0.04599 0.955857,-0.04599 l 42.68274,0 c 0.367587,4.9e-5 0.710717,0.01473 1.02939,0.04599 0.31857,6.5e-5 0.588153,0.04616 0.808793,0.138151 0.245038,0.09216 0.441119,0.260918 0.588212,0.506351 0.147006,0.214872 0.220538,0.552429 0.220582,1.0127"
         style="font-size:60.9244957px;font-style:normal;font-variant:normal;font-weight:normal;font-stretch:normal;line-height:125%;letter-spacing:0px;word-spacing:0px;fill:url(#linearGradient3885);fill-opacity:1;stroke:none;font-family:Gruppo;-inkscape-font-specification:Gruppo"
         id="path5806" />
      <path
         sodipodi:nodetypes="cccscccscscscccscccsccccccccccccccccscscccscccsscccccccsccscccccccsccsscsssccccccccccccccccscscccccccccccccccsccccccccccccccccscccccccccccsccccscsccccscccc"
         inkscape:connector-curvature="0"
         d="m 245.42748,56.962073 14.15406,0 c 0.3676,1.7e-5 0.6372,0.122766 0.80879,0.368248 0.19605,0.214857 0.2941,0.460354 0.2941,0.736511 0,0.27624 -0.098,0.537075 -0.2941,0.78254 -0.17159,0.21484 -0.44119,0.322268 -0.80879,0.322219 l -14.15406,0 0,31.209804 c 0,0.982025 -0.14701,1.611124 -0.44117,1.887314 -0.26961,0.245515 -0.61274,0.368264 -1.02938,0.368264 -0.34313,0 -0.67401,-0.122765 -0.99261,-0.368264 -0.31863,-0.27619 -0.47795,-0.905289 -0.47795,-1.887314 l 0,-31.209804 -3.2352,0 c -0.34313,4.9e-5 -0.60048,-0.107376 -0.77204,-0.322219 -0.17157,-0.245465 -0.25735,-0.5063 -0.25735,-0.78254 0,-0.276157 0.0858,-0.521654 0.25735,-0.736511 0.17156,-0.245482 0.42891,-0.368231 0.77204,-0.368248 l 3.27197,0 0,-1.887331 c 0,-2.48569 0.19606,-4.572491 0.58823,-6.260369 0.41664,-1.718487 0.9926,-3.084114 1.7279,-4.096864 0.75976,-1.043343 1.6666,-1.795208 2.72052,-2.255578 1.05387,-0.460273 2.24256,-0.690434 3.56608,-0.690499 0.73525,6.5e-5 1.43377,0.03078 2.09553,0.09216 0.66173,0.03078 1.32349,0.122766 1.98525,0.27619 0.68624,0.122766 1.397,0.306929 2.1323,0.552396 0.75976,0.214855 1.58082,0.506398 2.46317,0.874598 0.22055,0.09216 0.40437,0.199533 0.55145,0.322217 0.17155,0.09216 0.30633,0.230227 0.40439,0.41431 0.3186,0.613794 0.24507,1.120145 -0.22058,1.519051 -0.12265,0.153539 -0.31864,0.260885 -0.58821,0.322235 -0.24511,0.03078 -0.52697,-0.03078 -0.84556,-0.184133 -1.32353,-0.583037 -2.61025,-0.981976 -3.8602,-1.196848 -1.22548,-0.214758 -2.42642,-0.322186 -3.60284,-0.322218 -0.95588,3.2e-5 -1.82595,0.138151 -2.61023,0.414292 -0.75981,0.245531 -1.4093,0.751914 -1.94848,1.519067 -0.53923,0.767236 -0.95589,1.856673 -1.24997,3.268279 -0.26963,1.380997 -0.40441,3.191593 -0.40441,5.431801 l 0,1.887314 m -13.79423,32.452579 c 0,0.889969 -0.0857,1.657155 -0.25734,2.301608 -0.17158,0.613778 -0.56372,0.920643 -1.17644,0.920643 -0.36765,0 -0.64951,-0.07677 -0.84558,-0.230161 -0.19606,-0.184115 -0.34313,-0.414293 -0.44116,-0.690482 -0.098,-0.306881 -0.15931,-0.644453 -0.18382,-1.012716 -0.0245,-0.398923 -0.0368,-0.797879 -0.0368,-1.196817 l 0,-49.41007 c 0,-0.460272 0.0118,-0.889903 0.0368,-1.28889 0.0245,-0.398907 0.0858,-0.736479 0.18382,-1.012701 0.12265,-0.306832 0.28185,-0.552347 0.47793,-0.736527 0.22058,-0.184066 0.51469,-0.276141 0.88234,-0.27619 0.2941,4.9e-5 0.52693,0.09216 0.69849,0.27619 0.19607,0.18418 0.34313,0.429695 0.44118,0.736527 0.098,0.306914 0.1593,0.659823 0.18382,1.058729 0.0245,0.368314 0.0368,0.751915 0.0368,1.150821 l 0,49.410036 m -28.94355,0.966673 c 2.32835,1.6e-5 4.36262,-0.184132 6.1028,-0.55238 1.74012,-0.368247 3.23518,-0.813247 4.48517,-1.334935 1.24994,-0.521705 2.26707,-1.05873 3.0514,-1.611142 0.80877,-0.552362 1.43374,-1.012684 1.87495,-1.380932 0.19604,-0.153538 0.40435,-0.16881 0.62498,-0.04616 0.22055,0.122766 0.40437,0.322219 0.55146,0.598409 0.14701,0.276189 0.22055,0.583087 0.22057,0.920642 -2e-5,0.306898 -0.12266,0.567733 -0.36763,0.782541 -0.22061,0.27619 -0.69854,0.705836 -1.43379,1.28889 -0.73531,0.583088 -1.77695,1.181495 -3.12492,1.795273 -1.32352,0.583071 -2.97789,1.104775 -4.9631,1.565097 -1.98526,0.460305 -4.33814,0.690466 -7.05865,0.690466 -2.84307,0 -5.25723,-0.444968 -7.24246,-1.33492 -1.98525,-0.889951 -3.60285,-2.132828 -4.85281,-3.728616 -1.24999,-1.595771 -2.15681,-3.513762 -2.72052,-5.754003 -0.56371,-2.240225 -0.84558,-4.695272 -0.84558,-7.365144 0,-3.559806 0.45343,-6.521204 1.36027,-8.884212 0.90684,-2.362957 2.14455,-4.250271 3.71315,-5.66196 1.59307,-1.442298 3.45577,-2.454999 5.58808,-3.038118 2.1568,-0.583038 4.47291,-0.874566 6.94835,-0.874615 5.09789,4.9e-5 8.90905,1.227574 11.43354,3.682572 2.54891,2.424389 3.82338,5.907493 3.82341,10.449308 -3e-5,0.398956 -0.049,0.874631 -0.147,1.427009 -0.0982,0.521705 -0.23286,1.028055 -0.4044,1.519036 -0.147,0.460353 -0.31866,0.859293 -0.51469,1.196848 -0.1961,0.306898 -0.37993,0.460339 -0.55145,0.460322 l -10.07327,0 -18.23482,-0.460322 c 0.049,2.854004 0.35536,5.27836 0.91907,7.273086 0.56371,1.964036 1.37252,3.575161 2.42641,4.833376 1.05389,1.227525 2.36513,2.132813 3.93373,2.7159 1.56857,0.55238 3.3945,0.82857 5.4778,0.828553 m 1.91171,-31.209788 c -2.27937,3.3e-5 -4.30137,0.245531 -6.06601,0.736528 -1.76468,0.491029 -3.27199,1.288923 -4.52194,2.393665 -1.22548,1.074116 -2.18134,2.470418 -2.86758,4.188922 -0.68626,1.718554 -1.07841,3.820675 -1.17644,6.306415 l 27.71987,0 0,-2.48574 c -2e-5,-1.534372 -0.23287,-2.976735 -0.6985,-4.327025 -0.44121,-1.350257 -1.17647,-2.531752 -2.20583,-3.544485 -1.02942,-1.012669 -2.37742,-1.810563 -4.04401,-2.393666 -1.66665,-0.583037 -3.71318,-0.874581 -6.13956,-0.874614 m -26.22303,23.844789 c -4e-5,-1.626479 -0.4657,-2.884678 -1.39703,-3.774647 -0.90687,-0.88995 -2.12008,-1.534387 -3.63961,-1.933359 -1.49509,-0.429613 -3.21074,-0.69045 -5.14692,-0.78254 -1.91175,-0.122766 -3.87248,-0.214807 -5.88221,-0.27619 -1.98526,-0.09216 -3.946,-0.230144 -5.8822,-0.414293 -1.91173,-0.214806 -3.62736,-0.629083 -5.14693,-1.242861 -1.49507,-0.644437 -2.70826,-1.549726 -3.63961,-2.715916 -0.90685,-1.1968 -1.36026,-2.823262 -1.36026,-4.879405 0,-2.117442 0.45341,-3.851334 1.36026,-5.201623 0.93135,-1.350241 2.14454,-2.424323 3.63961,-3.222251 1.49505,-0.79786 3.18617,-1.350257 5.0734,-1.657153 1.8872,-0.306849 3.81115,-0.46029 5.77191,-0.460322 3.13716,3.2e-5 6.11501,0.337606 8.9336,1.012717 2.84304,0.675161 5.42875,1.779936 7.75716,3.314292 0.24505,0.153539 0.40436,0.352959 0.47791,0.598424 0.098,0.214856 0.15927,0.445017 0.18382,0.690499 -2e-5,0.398955 -0.098,0.751865 -0.2941,1.05873 -0.19611,0.306913 -0.41669,0.460353 -0.66175,0.460321 -0.14715,3.2e-5 -0.24512,-0.03078 -0.29411,-0.09216 -2.08331,-1.319549 -4.4607,-2.362942 -7.13218,-3.130177 -2.67151,-0.797877 -5.61261,-1.196799 -8.82328,-1.196848 -1.66665,4.9e-5 -3.28425,0.138151 -4.85284,0.414292 -1.5686,0.245548 -2.9656,0.675177 -4.19106,1.28889 -1.20095,0.583104 -2.16908,1.380998 -2.90434,2.393682 -0.73527,0.982058 -1.10292,2.224904 -1.10292,3.728601 0,1.534438 0.45341,2.715932 1.36027,3.544485 0.93134,0.828585 2.14455,1.442364 3.63961,1.841286 1.51956,0.368264 3.23521,0.598425 5.14692,0.690482 1.93622,0.09216 3.89695,0.184132 5.88221,0.27619 2.00974,0.09216 3.97047,0.260869 5.8822,0.506351 1.9362,0.214839 3.65183,0.659823 5.14693,1.334934 1.51954,0.644487 2.73273,1.595788 3.63961,2.853987 0.93132,1.227541 1.397,2.884712 1.39702,4.971496 -2e-5,1.871978 -0.4657,3.452394 -1.39702,4.741301 -0.93138,1.288907 -2.16909,2.332283 -3.71313,3.130177 -1.54413,0.767203 -3.33328,1.334951 -5.36751,1.703183 -2.00978,0.337588 -4.09306,0.50635 -6.24984,0.50635 -1.32352,0 -2.75731,-0.04616 -4.30136,-0.137988 -1.51958,-0.06139 -3.03915,-0.230161 -4.55871,-0.506351 -1.51958,-0.306881 -2.99013,-0.751848 -4.41165,-1.334936 -1.42155,-0.613762 -2.65926,-1.44233 -3.71315,-2.485739 -0.34313,-0.306864 -0.5147,-0.70582 -0.5147,-1.196848 0,-0.398923 0.0858,-0.736495 0.25735,-1.012685 0.19607,-0.306881 0.42891,-0.460322 0.69853,-0.460322 0.17155,0 0.3186,0.06139 0.44116,0.184115 1.02937,0.889969 2.13228,1.611143 3.30873,2.163521 1.20094,0.55238 2.46317,0.982011 3.78667,1.288891 1.32347,0.306897 2.70824,0.521705 4.15431,0.64447 1.44602,0.09216 2.94107,0.137988 4.48517,0.137988 1.83817,1.7e-5 3.60284,-0.107376 5.29399,-0.322218 1.71561,-0.245515 3.22293,-0.644453 4.52195,-1.19685 1.32346,-0.583054 2.37735,-1.334919 3.16167,-2.255578 0.78426,-0.951302 1.17641,-2.148151 1.17645,-3.590481"
         style="font-size:60.9244957px;font-style:normal;font-variant:normal;font-weight:normal;font-stretch:normal;line-height:125%;letter-spacing:0px;word-spacing:0px;fill:url(#linearGradient3887);fill-opacity:1;stroke:none;font-family:Gruppo;-inkscape-font-specification:Gruppo"
         id="path5816" />
    </g>
    <g
       id="g5895"
       transform="translate(-100.10457,-11.904267)" />
  </g>
</svg>
